{
  "accessors": [
    {
      "bufferView": 1,
      "componentType": 5126,
      "count": 11162,
      "max": [
        2.75,
        -70.318000793457031,
        -25
      ],
      "min": [
        -7.75,
        -73.181999206542969,
        -27.912700653076172
      ],
      "type": "VEC3"
    },
    {
      "bufferView": 1,
      "byteOffset": 133944,
      "componentType": 5126,
      "count": 11162,
      "max": [
        1,
        1,
        1
      ],
      "min": [
        -1,
        -1,
        -1
      ],
      "type": "VEC3"
    },
    {
      "bufferView": 0,
      "componentType": 5125,
      "count": 36798,
      "max": [
        11161
      ],
      "min": [
        0
      ],
      "type": "SCALAR"
    },
    {
      "bufferView": 1,
      "byteOffset": 267888,
      "componentType": 5126,
      "count": 21259,
      "max": [
        16,
        -15,
        -9
      ],
      "min": [
        -21.875,
        -77,
        -29
      ],
      "type": "VEC3"
    },
    {
      "bufferView": 1,
      "byteOffset": 522996,
      "componentType": 5126,
      "count": 21259,
      "max": [
        1,
        1,
        1
      ],
      "min": [
        -1,
        -1,
        -1
      ],
      "type": "VEC3"
    },
    {
      "bufferView": 0,
      "byteOffset": 147192,
      "componentType": 5125,
      "count": 86901,
      "max": [
        21258
      ],
      "min": [
        0
      ],
      "type": "SCALAR"
    },
    {
      "bufferView": 1,
      "byteOffset": 778104,
      "componentType": 5126,
      "count": 547,
      "max": [
        8,
        -0,
        -14
      ],
      "min": [
        -14,
        -25,
        -22
      ],
      "type": "VEC3"
    },
    {
      "bufferView": 1,
      "byteOffset": 784668,
      "componentType": 5126,
      "count": 547,
      "max": [
        1,
        1,
        0.99993741512298584
      ],
      "min": [
        -1,
        -1,
        -1
      ],
      "type": "VEC3"
    },
    {
      "bufferView": 0,
      "byteOffset": 494796,
      "componentType": 5125,
      "count": 1671,
      "max": [
        546
      ],
      "min": [
        0
      ],
      "type": "SCALAR"
    },
    {
      "bufferView": 1,
      "byteOffset": 791232,
      "componentType": 5126,
      "count": 4254,
      "max": [
        16,
        -0,
        -12
      ],
      "min": [
        -21.875,
        -72.226997375488281,
        -29
      ],
      "type": "VEC3"
    },
    {
      "bufferView": 1,
      "byteOffset": 842280,
      "componentType": 5126,
      "count": 4254,
      "max": [
        1,
        1,
        1
      ],
      "min": [
        -1,
        -1,
        -1
      ],
      "type": "VEC3"
    },
    {
      "bufferView": 0,
      "byteOffset": 501480,
      "componentType": 5125,
      "count": 16350,
      "max": [
        4253
      ],
      "min": [
        0
      ],
      "type": "SCALAR"
    }
  ],
  "asset": {
    "extras": {
      "author": "Javi_DaviYT (https://sketchfab.com/Javi_DaviYT)",
      "license": "CC-BY-4.0 (http://creativecommons.org/licenses/by/4.0/)",
      "source": "https://sketchfab.com/3d-models/basic-person-912ed773e20b4325a3c8287514bbad24",
      "title": "Basic Person"
    },
    "generator": "Sketchfab-6.70.0",
    "version": "2.0"
  },
  "bufferViews": [
    {
      "buffer": 0,
      "byteLength": 566880,
      "byteOffset": 0,
      "name": "floatBufferViews",
      "target": 34963
    },
    {
      "buffer": 0,
      "byteLength": 893328,
      "byteOffset": 566880,
      "byteStride": 12,
      "name": "floatBufferViews",
      "target": 34962
    }
  ],
  "buffers": [
    {
      "byteLength": 1460208,
      "uri": "scene.bin"
    }
  ],
  "materials": [
    {
      "doubleSided": true,
      "emissiveFactor": [
        0,
        0,
        0
      ],
      "name": "color_16448250",
      "pbrMetallicRoughness": {
        "baseColorFactor": [
          0.98039200000000004,
          0.98039200000000004,
          0.98039200000000004,
          1
        ],
        "metallicFactor": 0,
        "roughnessFactor": 0.59999999999999998
      }
    },
    {
      "doubleSided": true,
      "emissiveFactor": [
        0,
        0,
        0
      ],
      "name": "color_16500122",
      "pbrMetallicRoughness": {
        "baseColorFactor": [
          0.98431400000000002,
          0.77254900000000004,
          0.60392199999999996,
          1
        ],
        "metallicFactor": 0,
        "roughnessFactor": 0.59999999999999998
      }
    },
    {
      "doubleSided": true,
      "emissiveFactor": [
        0,
        0,
        0
      ],
      "name": "color_1650274",
      "pbrMetallicRoughness": {
        "baseColorFactor": [
          0.098039200000000007,
          0.180392,
          0.38431399999999999,
          1
        ],
        "metallicFactor": 0,
        "roughnessFactor": 0.59999999999999998
      }
    },
    {
      "doubleSided": true,
      "emissiveFactor": [
        0,
        0,
        0
      ],
      "name": "color_2829873",
      "pbrMetallicRoughness": {
        "baseColorFactor": [
          0.168627,
          0.180392,
          0.19215699999999999,
          1
        ],
        "metallicFactor": 0,
        "roughnessFactor": 0.59999999999999998
      }
    }
  ],
  "meshes": [
    {
      "primitives": [
        {
          "attributes": {
            "NORMAL": 1,
            "POSITION": 0
          },
          "indices": 2,
          "material": 0,
          "mode": 4
        }
      ]
    },
    {
      "primitives": [
        {
          "attributes": {
            "NORMAL": 4,
            "POSITION": 3
          },
          "indices": 5,
          "material": 1,
          "mode": 4
        }
      ]
    },
    {
      "primitives": [
        {
          "attributes": {
            "NORMAL": 7,
            "POSITION": 6
          },
          "indices": 8,
          "material": 2,
          "mode": 4
        }
      ]
    },
    {
      "primitives": [
        {
          "attributes": {
            "NORMAL": 10,
            "POSITION": 9
          },
          "indices": 11,
          "material": 3,
          "mode": 4
        }
      ]
    }
  ],
  "nodes": [
    {
      "children": [
        1
      ],
      "name": "RootNode (gltf orientation matrix)",
      "rotation": [
        -0.70710678118654746,
        -0,
        -0,
        0.70710678118654757
      ]
    },
    {
      "children": [
        2
      ],
      "name": "RootNode (model correction matrix)"
    },
    {
      "children": [
        3,
        4,
        5,
        6
      ],
      "name": "Basic Person Tinkercad Model.obj.cleaner.materialmerger.gles"
    },
    {
      "mesh": 0,
      "name": ""
    },
    {
      "mesh": 1,
      "name": ""
    },
    {
      "mesh": 2,
      "name": ""
    },
    {
      "mesh": 3,
      "name": ""
    }
  ],
  "scene": 0,
  "scenes": [
    {
      "name": "OSG_Scene",
      "nodes": [
        0
      ]
    }
  ]
}

